<svg xmlns="http://www.w3.org/2000/svg" viewBox="0 0 120 120" role="img" aria-labelledby="title desc">
  <title id="title">Avatar femenino</title>
  <desc id="desc">Ilustracion simple de perfil femenino para usuario administrador.</desc>
  <rect width="120" height="120" rx="60" fill="#17a899"/>
  <path d="M31 73c-6-31 6-56 29-56s35 25 29 56c-8-9-14-15-29-15s-21 6-29 15z" fill="#0f172a"/>
  <circle cx="60" cy="48" r="24" fill="#f4d2bd"/>
  <path d="M35 45c16-2 25-8 33-20 8 8 13 15 18 22-4-22-15-31-30-31-13 0-23 10-21 29z" fill="#0f172a"/>
  <path d="M28 104c5-24 18-36 32-36s27 12 32 36H28z" fill="#ffffff" opacity=".92"/>
  <path d="M45 80c4 5 9 8 15 8s11-3 15-8c-4-4-9-6-15-6s-11 2-15 6z" fill="#0f172a" opacity=".9"/>
</svg>
